:version 1.10
:name ASF
:units
  mass 1
  length 1
  angle deg
:documentation
  ASF file generated by Kaydara
:root
  axis xyz
  order  tx ty tz rx ry rz
  position 0 0 0
  orientation 0 0 0
:bonedata
  begin
    id 1
    name RightUpLegDummy
    direction -0.718183 -0.695806 0.00816078
    length 4.904
    axis 0 0 0 xyz
  end
  begin
    id 2
    name RightUpLeg
    direction -0.0736652 -0.994202 0.0783343
    length 17.4976
    axis -2.72909 -3.00389 -4.00133 xyz
    dof rx ry rz
  end
  begin
    id 3
    name RightLeg
    direction -0.0389037 -0.994596 -0.0962598
    length 16.5821
    axis 3.95836 -18.5909 -4.46993 xyz
    dof rx ry rz
  end
  begin
    id 4
    name RightFoot
    direction -0.311643 -0.412678 0.855906
    length 3.77069
    axis -1.99483 -18.8351 -3.27644 xyz
    dof rx ry rz
  end
  begin
    id 5
    name RightToes
    direction -0.317852 0.0389852 0.947339
    length 3.85082
    axis -2.00228 -18.1713 -3.25211 xyz
    dof rx ry rz
  end
  begin
    id 6
    name SpineDummy
    direction 8.3039e-015 1 4.44677e-016
    length 4.6813
    axis 0 0 0 xyz
  end
  begin
    id 7
    name Spine
    direction -0.000262373 0.999988 0.00493267
    length 10.1015
    axis -0.00246081 0.00062579 0.0150362 xyz
    dof rx ry rz
  end
  begin
    id 8
    name Spine1
    direction 0 0 0
    length 0
    axis -0.00349562 0.000650293 0.0196666 xyz
    dof rx ry rz
  end
  begin
    id 9
    name HEadDummy
    direction -0.000343232 0.999999 0.00123745
    length 3.43865
    axis -0.00349562 0.000650293 0.0196666 xyz
  end
  begin
    id 10
    name HEad
    direction -0.0461221 0.980933 0.188796
    length 5.12695
    axis -0.00351404 -7.04812 0.0199272 xyz
    dof rx ry rz
  end
  begin
    id 11
    name LeftShoulder1Dummy
    direction 0.998904 -0.0399089 -0.0244534
    length 3.5433
    axis -0.00349562 0.000650293 0.0196666 xyz
  end
  begin
    id 12
    name LeftShoulder1
    direction 0.99951 1.64443e-005 0.0312999
    length 4.05031
    axis -0.00349562 0.000650293 0.0196666 xyz
    dof rx ry rz
  end
  begin
    id 13
    name LeftArm
    direction 0.984791 0.0515299 0.165927
    length 12.9126
    axis -64.823 -10.7743 5.20463 xyz
    dof rx ry rz
  end
  begin
    id 14
    name LeftForeArm
    direction 0.984968 0.0534808 0.16425
    length 10.8596
    axis -30.0462 -7.70601 1.87451 xyz
    dof rx ry rz
  end
  begin
    id 15
    name LeftHand
    direction 0.975871 0.0289682 0.216418
    length 6.62295
    axis -20.1348 -6.98077 1.86072 xyz
    dof rx ry rz
  end
  begin
    id 16
    name RightShoulderDummy
    direction -0.998877 -0.0405946 -0.0244307
    length 3.5433
    axis -0.00349562 0.000650293 0.0196666 xyz
  end
  begin
    id 17
    name RightShoulder
    direction -0.998933 -0.0249743 -0.0388558
    length 4.05031
    axis -0.0205316 -4.02113 1.41395 xyz
    dof rx ry rz
  end
  begin
    id 18
    name RightArm
    direction -0.997559 0.068664 0.0127103
    length 12.9638
    axis -67.3882 1.84188 -6.15987 xyz
    dof rx ry rz
  end
  begin
    id 19
    name RightForeArm
    direction -0.991508 0.0912848 0.0926241
    length 10.8312
    axis -22.1975 3.41087 -4.28711 xyz
    dof rx ry rz
  end
  begin
    id 20
    name RightHand
    direction -0.989262 0.0600788 0.133232
    length 6.57864
    axis -12.2911 2.17515 -4.39675 xyz
    dof rx ry rz
  end
  begin
    id 21
    name LeftUpLegDummy
    direction 0.718183 -0.695806 0.00816078
    length 4.904
    axis 0 0 0 xyz
  end
  begin
    id 22
    name LeftUpLeg
    direction 0.0831398 -0.99469 0.0606531
    length 17.4976
    axis -1.71016 2.29552 4.63832 xyz
    dof rx ry rz
  end
  begin
    id 23
    name LeftLeg
    direction 0.0498442 -0.991778 -0.117862
    length 16.5821
    axis 5.13757 15.5727 5.13348 xyz
    dof rx ry rz
  end
  begin
    id 24
    name LeftFoot
    direction 0.269026 -0.433896 0.85986
    length 3.77069
    axis -0.576502 15.6961 4.10267 xyz
    dof rx ry rz
  end
  begin
    id 25
    name LeftToes
    direction 0.277311 0.0251143 0.960452
    length 3.85048
    axis -0.576502 15.6961 4.10267 xyz
    dof rx ry rz
  end
:hierarchy
  begin
    root RightUpLegDummy SpineDummy LeftUpLegDummy
    RightUpLegDummy RightUpLeg
    RightUpLeg RightLeg
    RightLeg RightFoot
    RightFoot RightToes
    SpineDummy Spine
    Spine Spine1
    Spine1 HEadDummy LeftShoulder1Dummy RightShoulderDummy
    HEadDummy HEad
    LeftShoulder1Dummy LeftShoulder1
    LeftShoulder1 LeftArm
    LeftArm LeftForeArm
    LeftForeArm LeftHand
    RightShoulderDummy RightShoulder
    RightShoulder RightArm
    RightArm RightForeArm
    RightForeArm RightHand
    LeftUpLegDummy LeftUpLeg
    LeftUpLeg LeftLeg
    LeftLeg LeftFoot
    LeftFoot LeftToes
  end

:SAMPLES-PER-SECOND 30
:FULLY-SPECIFIED
:DEGREES
46
root  14.8339 35.084 -19.108 0.0330409 5.4104 0.103276
RightUpLeg  -41.865 -6.46375 8.19571
RightLeg  35.875 11.974 -4.36403
RightFoot  0.758551 0.936145 -8.18322
RightToes  -5.82073e-011 -3.18055e-015 -2.98177e-016
Spine  21.4721 -1.56313 9.01769
Spine1  3.37282 1.66573 -13.0893
HEad  0.463978 -1.47422 -4.99597
LeftShoulder1  -3.88251e-019 9.70628e-020 -3.87848e-018
LeftArm  -16.8869 64.5992 -53.1419
LeftForeArm  -29.8645 -56.4492 15.6317
LeftHand  -2.49954 -8.59673 21.3883
RightShoulder  5.20943 8.65718 26.924
RightArm  31.9672 -53.4536 -24.0446
RightForeArm  -26.2287 56.3875 -40.0652
RightHand  -2.31716 7.20448 -21.1183
LeftUpLeg  -45.316 3.90123 2.47311
LeftLeg  39.3442 -11.1001 3.05776
LeftFoot  -5.39423 0.140201 -2.54732
LeftToes  1.2018e-011 -3.94675e-011 -1.33631e-011
47
root  15.4307 32.9459 -17.378 -2.05559 1.99445 -0.037452
RightUpLeg  -47.6136 -4.02283 7.47133
RightLeg  54.0332 13.2203 -4.87619
RightFoot  -1.86307 1.02125 -10.0977
RightToes  -5.82073e-011 -3.18055e-015 -2.98177e-016
Spine  24.0799 -0.924209 7.98871
Spine1  4.13432 2.72158 -12.0592
HEad  -7.18074 -0.239113 -4.66318
LeftShoulder1  -3.88251e-019 9.70628e-020 -3.87848e-018
LeftArm  -25.4806 69.1575 -62.9795
LeftForeArm  -32.4721 -50.663 12.026
LeftHand  -2.48273 -7.93019 22.3011
RightShoulder  6.07505 9.37683 30.3639
RightArm  23.7768 -51.8339 -14.3715
RightForeArm  -23.0847 51.0573 -32.2486
RightHand  -2.19275 4.57292 -25.0241
LeftUpLeg  -48.3575 1.89556 4.27031
LeftLeg  50.1391 -10.4483 4.99455
LeftFoot  -0.509743 0.194697 -1.72368
LeftToes  1.2018e-011 -3.94675e-011 -1.33631e-011
48
root  16.0927 31.429 -15.8052 -3.50941 -0.0853271 -0.55212
RightUpLeg  -50.002 -4.08592 7.18678
RightLeg  66.5165 14.4898 -4.48121
RightFoot  -11.8648 0.140004 -8.0962
RightToes  -5.82073e-011 -3.18055e-015 -2.98177e-016
Spine  24.7746 -0.444928 7.35761
Spine1  6.1737 2.57489 -8.70085
HEad  -12.3511 0.908896 -3.77118
LeftShoulder1  -3.88251e-019 9.70628e-020 -3.87848e-018
LeftArm  -30.9853 67.3661 -72.5438
LeftForeArm  -33.7773 -38.7765 7.47296
LeftHand  -2.34961 -7.31084 22.1565
RightShoulder  6.77939 9.97171 32.8944
RightArm  15.5018 -48.528 -0.966951
RightForeArm  -25.026 45.1598 -25.7789
RightHand  -1.7965 2.17526 -26.722
LeftUpLeg  -51.1387 0.993479 5.36945
LeftLeg  62.3839 -10.4383 7.55966
LeftFoot  -4.61375 0.0407692 -0.73129
LeftToes  1.2018e-011 -3.94675e-011 -1.33631e-011
49
root  16.7298 30.8833 -14.594 -3.73538 -0.989746 -1.17181
RightUpLeg  -49.939 -4.7759 6.71217
RightLeg  71.2323 15.0519 -3.67379
RightFoot  -17.8953 -0.208761 -6.23787
RightToes  -5.82073e-011 -3.18055e-015 -2.98177e-016
Spine  24.2696 -0.640679 8.86709
Spine1  6.86493 2.32058 -7.4578
HEad  -14.6098 0.256443 -3.12524
LeftShoulder1  -3.88251e-019 9.70628e-020 -3.87848e-018
LeftArm  -27.0516 62.8692 -74.4873
LeftForeArm  -31.0136 -26.2949 3.24272
LeftHand  -2.19937 -7.75196 20.1218
RightShoulder  7.30286 10.34 34.8114
RightArm  13.1118 -45.6113 8.86794
RightForeArm  -26.5322 41.1064 -22.2255
RightHand  -1.68988 1.97308 -25.9597
LeftUpLeg  -51.5075 0.994782 5.49973
LeftLeg  68.3924 -10.6274 9.44237
LeftFoot  -11.7666 -0.0251302 -1.05899
LeftToes  1.2018e-011 -3.94675e-011 -1.33631e-011
50
root  17.2528 30.9385 -13.6402 -3.19658 -2.147 -1.0627
RightUpLeg  -49.282 -4.3568 5.64085
RightLeg  72.1042 15.2346 -3.12822
RightFoot  -18.061 -0.200798 -6.09611
RightToes  -5.82073e-011 -3.18055e-015 -2.98177e-016
Spine  24.1672 -0.777526 10.1002
Spine1  5.68952 2.78332 -8.76315
HEad  -16.5826 -1.46323 -2.94871
LeftShoulder1  -3.88251e-019 9.70628e-020 -3.87848e-018
LeftArm  -26.9986 59.3283 -73.6076
LeftForeArm  -20.6598 -20.4581 -1.1905
LeftHand  -2.30624 -8.785 19.5128
RightShoulder  7.58704 10.5066 35.8841
RightArm  17.0964 -43.659 14.6614
RightForeArm  -23.229 40.2427 -21.7291
RightHand  -2.1581 3.70716 -26.7543
LeftUpLeg  -50.3995 2.16991 4.53048
LeftLeg  69.7914 -10.83 9.61979
LeftFoot  -15.77 -0.0832622 -1.88257
LeftToes  1.2018e-011 -3.94675e-011 -1.33631e-011
51
root  17.7121 31.3794 -12.8828 -2.68818 -3.91849 -0.637303
RightUpLeg  -47.887 -2.93924 4.32566
RightLeg  71.2904 15.3571 -2.56573
RightFoot  -17.75 -0.160882 -5.54078
RightToes  -5.82073e-011 -3.18055e-015 -2.98177e-016
Spine  24.2981 -0.346715 9.96117
Spine1  4.54766 3.26999 -8.89417
HEad  -19.3994 -2.31702 -2.71087
LeftShoulder1  -3.88251e-019 9.70628e-020 -3.87848e-018
LeftArm  -26.1529 57.4173 -74.0832
LeftForeArm  -20.5272 -22.3331 0.307274
LeftHand  -2.39922 -8.61505 20.5328
RightShoulder  7.65578 10.5661 36.0955
RightArm  23.7128 -41.4012 19.0518
RightForeArm  -17.8197 42.0163 -23.4449
RightHand  -2.8388 5.36654 -29.7898
LeftUpLeg  -48.3417 4.10082 3.10227
LeftLeg  68.942 -10.7081 9.54591
LeftFoot  -16.2935 -0.082508 -1.36702
LeftToes  1.2018e-011 -3.94675e-011 -1.33631e-011
